<?xml version="1.0" standalone="no"?>
<!DOCTYPE svg PUBLIC "-//W3C//DTD SVG 20010904//EN"
 "http://www.w3.org/TR/2001/REC-SVG-20010904/DTD/svg10.dtd">
<svg version="1.0" xmlns="http://www.w3.org/2000/svg"
 width="260.000000pt" height="260.000000pt" viewBox="0 0 260.000000 260.000000"
 preserveAspectRatio="xMidYMid meet">
<metadata>
Created by potrace 1.11, written by Peter Selinger 2001-2013
</metadata>
<g transform="translate(0.000000,260.000000) scale(0.100000,-0.100000)"
fill="#000000" stroke="none">
<path d="M1040 2463 c-8 -1 -40 -4 -70 -5 l-55 -3 1 -55 c0 -30 3 -93 7 -140
4 -47 10 -121 13 -165 4 -44 8 -81 9 -83 2 -2 41 2 86 8 102 15 266 18 334 8
131 -20 162 -27 204 -44 137 -57 116 -174 -41 -219 -49 -14 -107 -19 -262 -21
-109 -1 -201 -6 -205 -9 -7 -8 -9 -415 -1 -416 3 -1 78 -2 167 -4 242 -4 344
-19 431 -64 94 -48 129 -137 93 -233 -14 -38 -84 -94 -146 -117 -117 -44 -197
-54 -444 -55 -196 -2 -235 -4 -236 -17 -2 -7 -6 -54 -10 -104 -4 -49 -9 -108
-11 -130 -2 -22 -6 -75 -10 -117 l-6 -78 28 -1 c16 -1 47 -3 69 -5 64 -5 307
-4 342 1 18 2 69 7 115 10 45 4 85 8 88 10 3 2 30 6 60 10 65 8 241 54 325 85
242 88 406 232 474 415 35 92 40 231 11 315 -12 36 -33 83 -47 105 -57 87
-169 170 -276 205 l-38 12 59 28 c147 69 226 195 217 345 -6 107 -40 185 -116
266 -104 110 -329 204 -564 234 -22 3 -51 8 -65 10 -87 14 -470 27 -530 18z"/>
<path d="M374 1108 c0 -304 -3 -570 -8 -591 -13 -70 -73 -117 -166 -132 -15
-2 -16 -21 -10 -170 4 -92 5 -93 107 -88 155 7 276 49 358 124 61 56 91 109
114 201 18 69 19 117 20 641 l1 567 -208 0 -208 0 0 -552z"/>
</g>
</svg>
